# xmcd
#
# Track frame offsets:
#	150
#	17190
#	33150
#	49970
#	72152
#	92857
#	116432
#	133477
#	153760
#	169237
#	185940
#	202400
#	221555
#	241385
#	259552
#	276902
#	293125
#	310455
#	330600
#
# Disc length: 4594 seconds
#
# Revision: 4
# Processed by: cddbd v1.5.2PL0 Copyright (c) Steve Scherf et al.
# Submitted via: audiograbber 1.83.01
#
DISCID=2d11f013
DTITLE=Diverse - Ö3 Greatest Hits 5
DYEAR=1998
DGENRE=Pop
TTITLE0=Nek - Laura Non C'e
TTITLE1=Lutricia Mc Neal - Stranded
TTITLE2=4 The Cause - Stand By Me
TTITLE3=4 Non Blondes - What's Up
TTITLE4=Lighthouse Familiy - High
TTITLE5=All Saints - Never Ever
TTITLE6=Soulsister - The Way To Your Heart
TTITLE7=R. E. M. - Drive
TTITLE8=Skunk Anansie - Hedonism
TTITLE9=Simply Red - Say You Love Me
TTITLE10=Kate Yanai - Summer Dreaming
TTITLE11=Joe Cocker - You Can Leave Your Hat On
TTITLE12=Robbie Williams - Angels
TTITLE13=Level 42 - Lessons In Love
TTITLE14=Shola Ama - You Might Need Somebody
TTITLE15=Los Umbrellos - No Tengo Dinero
TTITLE16=Cindy Lauper - Girls Just Want To Have Fun
TTITLE17=Midge Ure - Breathe
TTITLE18=Tim Tim - Under The Mango Tree
EXTD=
EXTT0=
EXTT1=
EXTT2=
EXTT3=
EXTT4=
EXTT5=
EXTT6=
EXTT7=
EXTT8=
EXTT9=
EXTT10=
EXTT11=
EXTT12=
EXTT13=
EXTT14=
EXTT15=
EXTT16=
EXTT17=
EXTT18=
PLAYORDER=
